<?xml version="1.0" standalone="no"?><!DOCTYPE svg PUBLIC "-//W3C//DTD SVG 1.1//EN" "http://www.w3.org/Graphics/SVG/1.1/DTD/svg11.dtd"><svg class="icon" width="64px" height="64.00px" viewBox="0 0 1024 1024" version="1.1" xmlns="http://www.w3.org/2000/svg"><path fill="#707070" d="M895.51 350.26a415.67 415.67 0 0 0-782.86 49l59.73 24.59c39.23-151.32 176.93-263.35 340.3-263.35 193.82 0 351.5 157.68 351.5 351.5S706.5 863.5 512.68 863.5c-119.33 0-225-59.78-288.53-151l-96.22-43.43c0.63 1.55 1.27 3.08 1.91 4.62a415.6 415.6 0 0 0 765.67-323.43zM627.655345 424.39011m-61.539174 14.524565a63.23 63.23 0 1 0 123.078348-29.049129 63.23 63.23 0 1 0-123.078348 29.049129ZM395.55 755.79a99.31 99.31 0 0 0 99.31-99.31v-1.92l120-93.8c4.24 0.39 8.53 0.6 12.87 0.6a137 137 0 1 0-137-137q0 6.17 0.55 12.18L396.87 557.2h-1.32a98.87 98.87 0 0 0-50.1 13.55L100.34 460.39a421.9 421.9 0 0 0 3.85 128.13l193.94 87.31a99.34 99.34 0 0 0 97.42 79.96zM627.67 335a89.42 89.42 0 1 1-89.41 89.41A89.41 89.41 0 0 1 627.67 335zM375.4 710.61a57.63 57.63 0 0 0 76.21-28.89 57.63 57.63 0 0 0-28.89-76.2L371 582.24a78.2 78.2 0 1 1-47.33 105.08z" /></svg>